<svg xmlns="http://www.w3.org/2000/svg" xmlns:xlink="http://www.w3.org/1999/xlink" version="1.1" x="0px" y="0px" viewBox="0 0 100 125" enable-background="new 0 0 100 100" xml:space="preserve"><g><path d="M50,93.2L50,93.2c22.2,0,36-24,24.9-43.2L50,6.8L25.1,50C14,69.2,27.8,93.2,50,93.2z"/><g><path d="M50.2,97.7c13.4,0,25.7-7.9,30.9-20.3c4.5-10.5,2.8-21.3-2.7-31c-8-13.9-16.1-27.9-24.1-41.8c-1.7-2.9-6.8-3.3-8.6-0.2    c-8,13.8-16,27.6-23.9,41.5c-5.5,9.5-7.2,19.8-3.2,30.2C23.5,89.3,36.4,97.4,50.2,97.7c6.5,0.1,5.8-8.9-0.3-9.1    C37.5,88.4,27.7,79.3,26.3,67c-0.9-7.8,2.7-13.9,6.4-20.3c7.2-12.5,14.4-25,21.7-37.5c-2.9-0.1-5.7-0.2-8.6-0.2    C53,21.5,60.2,34,67.4,46.5c3.7,6.4,7.2,12.5,6.3,20.3c-1.4,12-11.7,21.8-23.9,21.8C43.4,88.6,44,97.7,50.2,97.7z"/></g></g><text x="0" y="115" fill="#000000" font-size="5px" font-weight="bold" font-family="'Helvetica Neue', Helvetica, Arial-Unicode, Arial, Sans-serif">Created by Guilhem</text><text x="0" y="120" fill="#000000" font-size="5px" font-weight="bold" font-family="'Helvetica Neue', Helvetica, Arial-Unicode, Arial, Sans-serif">from the Noun Project</text></svg>